PathFileType	4	(X/Y/Z)	HSS_walk1.trc
DataRate	CameraRate	NumFrames	NumMarkers	Units	OrigDataRate	OrigDataStartFrame	OrigNumFrames
120.0	120.0	8	44	mm	120.0	757	1008
Frame#	Time		R.Shoulder		Offset		L.Shoulder		R.Elbow		R.Wrist.Radial		R.Wrist		R.Hand		L.Elbow		L.Wrist.Radial		L.Wrist		L.Hand		R.Hip		V.Sacral		L.PSIS		L.Hip		R.Thigh.Upper		R.Thigh.Front		R.Thigh.Rear		X.Shell.Lower.Thigh.Right		R.Knee.Lateral		R.Shank.Upper		R.Shank.Front		R.Shank.Rear		X.Shell.Lower.Shank.Right		R.Ankle.Lateral		R.Heel		R.Toe		L.Thigh.Upper		L.Thigh.Front		L.Thigh.Rear		X.Shell.Lower.Thigh.Left		L.Knee.Lateral		L.Shank.Upper		L.Shank.Front		L.Shank.Rear		X.Shell.Lower.Shank.Left		L.Ankle.Lateral		L.Heel		L.Toe		R.Troc		L.Troc		R.PSIS		L.ASIS		R.ASIS
			X1	Y1	Z1	X2	Y2	Z2	X3	Y3	Z3	X4	Y4	Z4	X5	Y5	Z5	X6	Y6	Z6	X7	Y7	Z7	X8	Y8	Z8	X9	Y9	Z9	X10	Y10	Z10	X11	Y11	Z11	X12	Y12	Z12	X13	Y13	Z13	X14	Y14	Z14	X15	Y15	Z15	X16	Y16	Z16	X17	Y17	Z17	X18	Y18	Z18	X19	Y19	Z19	X20	Y20	Z20	X21	Y21	Z21	X22	Y22	Z22	X23	Y23	Z23	X24	Y24	Z24	X25	Y25	Z25	X26	Y26	Z26	X27	Y27	Z27	X28	Y28	Z28	X29	Y29	Z29	X30	Y30	Z30	X31	Y31	Z31	X32	Y32	Z32	X33	Y33	Z33	X34	Y34	Z34	X35	Y35	Z35	X36	Y36	Z36	X37	Y37	Z37	X38	Y38	Z38	X39	Y39	Z39	X40	Y40	Z40	X41	Y41	Z41	X42	Y42	Z42	X43	Y43	Z43	X44	Y44	Z44

757	6.30000	957.37885	1468.79150	-8.79631	853.68756	1388.27795	-305.73199	993.09991	1472.61230	-374.91122	825.98761	1133.57056	28.06580	866.20050	883.66516	69.79594	817.76776	900.50110	122.86575	829.21680	813.02594	129.09424	1065.70203	1108.01941	-423.95834	1309.90430	1027.63318	-365.64471	1286.29578	994.26892	-424.85760	1367.10327	970.56238	-404.41873	983.49664	1032.70508	-28.89781	870.50281	1001.42523	-178.12944	873.96210	1007.89117	-220.20470	994.25317	1019.78864	-325.49835	1133.80518	715.86060	6.86882	1179.24231	694.87988	-9.14308	1127.50574	671.47839	15.13867	1165.92200	652.35016	-2.38667	1144.44666	530.69958	-14.52995	1136.33606	382.10623	29.46381	1166.58618	340.58551	6.28511	1106.65002	345.31000	14.65110	1131.41833	306.00357	5.43974	1132.49915	82.38119	-48.28373	1096.62195	45.79126	-105.91496	1282.41089	51.16551	-39.65965	1038.97705	674.83313	-315.62967	1054.70203	626.84790	-287.31454	1007.19519	639.49780	-326.59167	1030.31384	604.78711	-309.86383	952.53229	491.71729	-284.09979	886.81250	293.87833	-307.30316	907.64105	267.28821	-284.68213	848.28003	262.88153	-294.41129	864.39709	228.44531	-291.08942	837.36310	71.01234	-231.45529	776.81122	39.26876	-183.02017	977.21063	32.64568	-224.51682	1027.09546	882.67010	7.42470	1003.04956	875.69727	-356.73755	870.29584	1008.22156	-135.00630	1060.99451	988.26709	-284.03278	1048.40369	997.88794	-61.01678
758	6.30833	966.03375	1467.41577	-8.72888	863.05609	1386.89111	-305.57318	1002.20142	1471.72461	-374.37869	832.01813	1133.56470	27.47196	868.93860	883.27441	70.70720	819.95618	901.12006	123.28286	829.94800	813.44171	129.93260	1079.11804	1107.88940	-423.43991	1324.58057	1033.90723	-363.39771	1302.39990	999.65436	-422.61887	1383.68311	978.35876	-401.51291	993.73590	1031.15784	-28.94044	880.19702	1000.51465	-177.55777	883.24921	1006.94629	-219.64650	1002.98846	1018.40472	-325.70050	1141.24927	713.17468	6.36149	1186.37695	691.65027	-9.55610	1134.34973	668.71008	14.53879	1172.47180	649.09180	-2.88007	1152.03284	528.30469	-15.75357	1153.10364	380.68997	29.01673	1184.86462	340.60104	5.91630	1125.14465	341.90707	15.01638	1151.59167	304.12326	5.74773	1164.26172	80.26622	-46.59745	1128.43933	42.16584	-102.93870	1315.48901	54.58630	-43.08278	1044.41809	673.60016	-316.25763	1059.61682	625.43817	-287.84726	1012.19403	638.50537	-327.01340	1034.95020	603.63428	-310.37299	956.01447	491.24658	-284.42297	888.61432	293.74619	-307.75366	909.80322	266.94278	-286.05518	849.75476	263.04514	-294.80734	865.82843	228.51973	-291.44485	837.61908	71.24767	-231.50613	776.80804	39.76118	-183.01071	977.26886	32.64285	-224.61465	1036.57190	880.94983	7.70035	1010.66602	874.86884	-357.01868	880.06964	1007.02899	-134.40596	1069.87598	986.51819	-284.45337	1058.31250	996.38348	-61.27287
759	6.31667	974.42383	1465.98877	-8.46140	872.29584	1385.44824	-305.34543	1011.41284	1470.70581	-373.68640	838.50903	1133.46118	27.08371	871.59106	882.90338	71.56195	822.53180	901.56683	123.69777	831.52228	813.88947	130.73466	1091.85730	1107.65625	-423.51486	1338.84473	1039.95154	-361.11539	1318.01514	1004.79810	-420.34332	1399.63892	985.85938	-398.64203	1003.92157	1029.48694	-28.79297	889.89124	999.52026	-176.99635	892.56885	1005.85907	-219.26231	1011.75861	1017.00214	-325.78781	1148.52515	710.10767	6.21930	1193.46484	688.08533	-9.90917	1141.21399	665.66913	14.33425	1179.01367	645.68634	-3.17100	1159.68311	525.90137	-16.98987	1169.34851	379.69385	28.54132	1203.28101	341.16080	4.33832	1143.12476	339.37762	15.21076	1171.28394	303.00455	5.82232	1195.06445	79.52401	-45.12389	1159.11389	39.78843	-100.09383	1347.42212	58.95706	-46.21592	1049.85144	672.18140	-316.96106	1064.80103	623.86554	-288.56793	1017.00299	637.56531	-328.60080	1039.83606	602.40338	-310.78421	959.81403	490.64569	-284.91827	890.54004	293.62234	-308.16824	911.46924	266.75519	-286.44269	851.42157	263.20773	-295.06052	867.18860	228.56766	-291.64972	837.75812	71.47778	-231.61539	776.83929	40.32058	-183.08685	977.30682	32.60076	-224.72112	1046.26599	879.11932	7.80893	1018.28815	873.84180	-357.41403	889.70984	1005.78894	-133.83199	1078.77051	984.92786	-284.62823	1068.57178	994.72870	-61.46452
760	6.32500	982.91846	1464.51050	-8.11725	881.77209	1383.87866	-304.99023	1020.59497	1469.63977	-372.93396	845.09241	1133.06934	26.68998	874.68921	882.35907	72.17408	825.59180	901.87634	123.89409	833.24756	814.11615	131.52983	1104.48633	1107.26660	-423.53253	1352.77942	1045.62341	-358.97540	1333.17810	1009.77545	-418.20209	1415.23169	992.95538	-395.76657	1014.21149	1027.67615	-28.81717	899.62506	998.34290	-176.75423	901.80731	1004.66394	-218.86432	1020.48346	1015.58105	-325.99728	1156.13074	706.66290	6.02968	1200.70508	684.04468	-10.44140	1148.36853	662.31702	14.41666	1185.69849	641.91626	-3.45955	1167.72021	523.38721	-18.01053	1185.01331	379.07202	27.60426	1220.18213	341.66318	3.74131	1160.40356	337.30536	15.23470	1190.33533	302.31189	5.45279	1224.44226	79.80343	-43.96836	1189.07166	38.44308	-98.38946	1377.50977	64.19462	-48.99618	1055.62708	670.78119	-317.57916	1069.99060	622.25903	-289.18689	1022.44769	636.40454	-329.11313	1044.82556	601.10742	-311.55722	963.90143	489.95184	-285.35208	892.69684	293.43185	-308.58984	913.34851	266.43338	-286.78235	853.21136	263.43701	-295.43365	868.72449	228.68637	-292.00302	837.91028	71.79659	-231.71696	776.91785	40.97501	-183.11803	977.30469	32.56676	-224.74591	1056.00061	877.29297	8.07431	1026.01184	872.85638	-357.96890	899.49390	1004.36328	-133.30255	1087.54224	983.17511	-285.36734	1078.73438	992.92627	-61.62794
761	6.33333	991.64465	1462.76929	-7.76698	891.18903	1382.22681	-304.57983	1030.29456	1468.61279	-372.41949	851.92969	1132.60498	26.29518	878.34344	881.84131	72.82808	829.10699	901.97870	124.19952	835.70416	814.22107	132.17307	1117.10181	1106.87598	-423.24393	1366.39600	1050.95618	-356.83298	1347.98621	1014.40753	-416.07507	1430.39197	999.92822	-393.09155	1024.51929	1025.81238	-28.85978	909.29004	997.15753	-176.27356	911.13300	1003.48016	-218.35851	1029.33655	1014.07874	-326.08905	1164.22534	703.22546	6.06023	1208.22046	680.08496	-10.92043	1156.01428	659.11285	14.65972	1192.95483	638.03027	-3.60365	1176.03381	520.88617	-18.99829	1200.12720	378.53873	26.85217	1236.68652	342.65964	2.74819	1177.42725	335.83621	14.71421	1208.65015	302.03079	4.94146	1252.04944	80.79643	-43.65373	1216.93799	38.24606	-96.72250	1405.61121	70.13316	-51.60001	1061.50281	669.29773	-318.23630	1075.65161	620.69922	-290.08325	1027.77307	635.22003	-329.50327	1050.05029	599.76636	-312.23312	968.19720	489.16992	-285.80124	895.03442	293.38940	-309.07501	915.41992	266.15704	-287.26959	855.21326	263.64886	-295.85995	870.48645	228.77003	-292.38065	838.29834	72.21208	-231.83502	776.89215	41.71223	-183.23477	977.33917	32.51588	-224.88322	1065.69617	875.15100	8.39929	1033.64771	871.77191	-358.46634	908.01495	1002.86133	-132.76077	1096.62292	981.62903	-285.45828	1089.04333	991.08868	-61.89579
762	6.34167	1000.35907	1461.12964	-7.45456	900.52197	1380.41992	-304.14066	1039.59229	1467.26843	-371.59125	859.04480	1131.94617	26.03344	882.44781	881.03125	73.70751	833.18384	902.00378	124.55667	838.69110	814.01166	132.87050	1129.28809	1106.24316	-422.89441	1379.53162	1055.77209	-354.63776	1362.42249	1018.85126	-414.07394	1445.00037	1006.30786	-390.66827	1035.04089	1023.92316	-28.84332	918.87732	995.94366	-175.60695	920.47778	1002.11670	-217.85268	1038.20740	1012.54443	-326.18137	1172.53748	700.31360	5.55442	1216.15222	675.90753	-11.89984	1164.55603	655.90808	15.43357	1200.70935	634.32587	-3.58833	1184.44910	518.56342	-19.67102	1214.77026	378.15112	26.27227	1252.42944	343.65802	1.93499	1193.54883	334.55499	14.46763	1226.43994	301.97736	4.47925	1277.75610	82.33609	-43.83295	1243.47217	38.39862	-96.53855	1431.83899	77.03220	-53.69968	1067.39978	667.77765	-319.16348	1081.56091	619.42975	-291.24802	1033.44824	634.09351	-329.93298	1055.49072	598.28229	-312.88168	972.81635	488.39310	-286.18161	897.50153	293.15747	-309.48825	917.23145	265.59467	-286.83151	857.58368	263.87311	-296.25549	872.36383	228.81316	-292.70572	838.67175	72.63757	-232.13277	776.98932	42.54788	-183.35524	977.37360	32.50450	-224.95866	1075.65588	872.55414	8.25341	1041.38574	870.68188	-358.82266	918.34534	1001.43573	-131.99942	1105.58984	979.68958	-285.94974	1099.29321	989.13055	-62.53642
763	6.35000	1009.15839	1459.34558	-6.96290	910.02032	1378.71570	-303.54074	1049.04797	1465.93945	-370.83176	866.62396	1131.01990	26.01884	887.16705	880.18835	74.40445	837.72601	901.82410	124.96680	842.26691	813.76416	133.62743	1141.37537	1105.55469	-423.19196	1392.40662	1060.30981	-352.57999	1376.33325	1022.78320	-412.34399	1459.08142	1012.08862	-387.89676	1045.37964	1021.89954	-28.85394	928.57941	994.42157	-174.98819	929.86707	1000.63672	-217.21475	1046.87122	1011.06024	-326.39349	1182.26099	696.87897	5.67570	1224.57812	672.35632	-13.03191	1173.72583	653.19281	16.28601	1209.06592	630.95581	-3.57753	1193.43103	516.47046	-20.08686	1228.66089	377.77710	25.83902	1267.38635	344.61026	1.22910	1209.14392	333.11887	14.50257	1242.86584	302.04056	4.36650	1301.24548	84.26287	-44.33658	1268.10388	38.92405	-96.68970	1455.69263	83.58458	-55.58441	1073.63135	666.25708	-319.75580	1087.55762	617.65387	-292.08197	1039.32996	632.78113	-330.51956	1061.15930	596.92346	-313.80856	977.67474	487.37390	-286.62109	900.57367	292.88962	-309.90390	919.80835	265.29181	-287.46307	860.20312	264.11514	-296.72708	874.68616	228.90466	-293.41885	838.94336	73.00030	-232.34721	776.98523	43.45534	-183.66727	977.39514	32.46272	-224.98669	1085.69946	869.99493	8.13270	1049.02771	869.51947	-359.37927	928.90381	999.77863	-131.32448	1114.15930	978.07440	-286.13110	1109.48718	987.12238	-62.93618
764	6.35833	1017.99329	1457.41821	-6.19775	919.53058	1376.94519	-302.79297	1058.32690	1464.42383	-369.85922	874.35352	1130.09875	26.08289	892.00012	879.02667	74.89162	842.23877	901.47430	125.27689	846.40143	813.30237	134.02242	1153.32617	1104.74731	-423.01346	1404.89026	1064.34790	-350.59302	1389.72900	1026.44995	-410.74246	1472.63416	1017.68640	-385.55902	1055.90027	1019.95551	-28.74410	938.19354	992.74750	-174.23456	939.13715	999.12201	-216.53413	1055.57031	1009.40326	-326.41641	1191.97095	694.48035	5.52900	1233.50769	669.48157	-14.48838	1183.72839	651.01691	17.28700	1218.42749	628.37604	-3.47141	1202.75806	514.72180	-20.44367	1241.61401	377.18811	25.66973	1281.08386	345.31726	0.58516	1223.37927	332.08209	14.62193	1258.09033	301.97903	4.04204	1322.75757	85.48911	-45.66099	1290.94543	39.74487	-98.23116	1477.16626	89.43874	-57.23053	1079.93298	664.54907	-320.55194	1093.70654	615.81842	-292.73532	1045.41699	631.45911	-330.96591	1066.95593	595.31873	-314.45151	983.02972	486.35168	-286.75507	903.95361	292.76175	-310.25372	922.87610	264.83264	-287.68555	863.09698	264.34521	-297.22610	877.14673	228.99130	-293.69940	839.35297	73.50497	-232.74869	777.04315	44.63511	-184.25818	977.42596	32.47419	-225.06494	1095.91663	867.40051	8.10980	1056.87585	868.25848	-359.50647	937.97809	998.09357	-130.52652	1122.98071	976.15668	-286.87497	1119.85474	985.04736	-63.33125
